<svg width="520" height="520" viewBox="0 0 520 520" fill="none" xmlns="http://www.w3.org/2000/svg">
<rect width="520" height="520" rx="80" fill="white"/>
<path d="M123.929 344V169.613H150.553V344H123.929ZM193.534 344V170.678H240.126L267.016 244.692C268.614 249.662 270.122 254.81 271.542 260.134C272.962 265.282 274.471 270.518 276.068 275.843H277.133C278.731 270.518 280.239 265.282 281.659 260.134C283.257 254.81 284.854 249.662 286.452 244.692L312.543 170.678H358.869V344H320.264V286.758C320.264 280.901 320.53 273.979 321.063 265.992C321.773 258.004 322.483 250.017 323.193 242.03C324.08 234.043 324.879 227.209 325.589 221.53H324.524L310.413 267.855L287.517 329.357H263.821L241.191 267.855L227.346 221.53H226.281C226.991 227.209 227.701 234.043 228.411 242.03C229.299 250.017 230.097 258.004 230.807 265.992C231.517 273.979 231.872 280.901 231.872 286.758V344H193.534ZM388.103 346.396C382.778 346.396 378.319 344.532 374.725 340.805C371.13 336.945 369.333 332.285 369.333 326.828C369.333 321.236 371.13 316.577 374.725 312.85C378.319 308.989 382.778 307.059 388.103 307.059C393.561 307.059 398.021 308.989 401.482 312.85C405.076 316.577 406.873 321.236 406.873 326.828C406.873 332.285 405.076 336.945 401.482 340.805C398.021 344.532 393.561 346.396 388.103 346.396Z" fill="black"/>
</svg>
