<svg width="270" height="270" viewBox="0 0 270 270" fill="none" xmlns="http://www.w3.org/2000/svg">
<rect width="270" height="270" rx="135" fill="#F2F2F2"/>
<path d="M75.0811 175V91.16H87.8811V175H75.0811ZM108.545 175V91.672H130.945L143.873 127.256C144.641 129.645 145.366 132.12 146.049 134.68C146.732 137.155 147.457 139.672 148.225 142.232H148.737C149.505 139.672 150.23 137.155 150.913 134.68C151.681 132.12 152.449 129.645 153.217 127.256L165.761 91.672H188.033V175H169.473V147.48C169.473 144.664 169.601 141.336 169.857 137.496C170.198 133.656 170.54 129.816 170.881 125.976C171.308 122.136 171.692 118.851 172.033 116.12H171.521L164.737 138.392L153.729 167.96H142.337L131.457 138.392L124.801 116.12H124.289C124.63 118.851 124.972 122.136 125.313 125.976C125.74 129.816 126.124 133.656 126.465 137.496C126.806 141.336 126.977 144.664 126.977 147.48V175H108.545ZM202.088 176.152C199.528 176.152 197.384 175.256 195.656 173.464C193.928 171.608 193.064 169.368 193.064 166.744C193.064 164.056 193.928 161.816 195.656 160.024C197.384 158.168 199.528 157.24 202.088 157.24C204.712 157.24 206.856 158.168 208.52 160.024C210.248 161.816 211.112 164.056 211.112 166.744C211.112 169.368 210.248 171.608 208.52 173.464C206.856 175.256 204.712 176.152 202.088 176.152Z" fill="black"/>
</svg>
