<svg width="270" height="270" viewBox="0 0 270 270" fill="none" xmlns="http://www.w3.org/2000/svg">
<rect width="270" height="270" rx="135" fill="#F2F2F2"/>
<path d="M47.015 181V163.848H66.215V114.824H47.015V97.672H105.895V114.824H86.695V163.848H105.895V181H47.015ZM121.845 181V97.672H142.965L150.389 126.088L152.949 137.224H153.461L156.021 126.088L163.445 97.672H184.565V181H167.541V158.344C167.541 155.869 167.626 152.84 167.797 149.256C168.053 145.672 168.266 141.917 168.437 137.992C168.693 133.981 168.992 130.184 169.333 126.6C169.674 123.016 169.973 120.072 170.229 117.768H169.845L163.061 141.32L157.685 158.984H148.213L142.581 141.32L136.437 117.768H135.925C136.181 120.072 136.48 123.016 136.821 126.6C137.162 130.184 137.418 133.981 137.589 137.992C137.845 141.917 138.058 145.672 138.229 149.256C138.485 152.84 138.613 155.869 138.613 158.344V181H121.845ZM214.595 182.536C209.902 182.536 206.104 181 203.203 177.928C200.302 174.856 198.851 171.101 198.851 166.664C198.851 162.312 200.302 158.6 203.203 155.528C206.104 152.456 209.902 150.92 214.595 150.92C219.374 150.92 223.171 152.456 225.987 155.528C228.888 158.6 230.339 162.312 230.339 166.664C230.339 171.101 228.888 174.856 225.987 177.928C223.171 181 219.374 182.536 214.595 182.536Z" fill="black"/>
</svg>
